<mxfile host="app.diagrams.net" modified="2023-11-30T07:32:50.831Z" agent="Mozilla/5.0 (Windows NT 10.0; Win64; x64) AppleWebKit/537.36 (KHTML, like Gecko) Chrome/119.0.0.0 Safari/537.36" etag="G-2-BPgAB-rWZvzw_oNf" version="22.1.5" type="device">
  <diagram name="Page-1" id="OwfRXx8PYScfonxkTmXW">
    <mxGraphModel dx="1390" dy="478" grid="0" gridSize="10" guides="1" tooltips="1" connect="1" arrows="1" fold="1" page="0" pageScale="1" pageWidth="850" pageHeight="1100" math="0" shadow="0">
      <root>
        <mxCell id="0" />
        <mxCell id="1" parent="0" />
        <mxCell id="Vjv-evDcL62Ehfj9zXtV-1" value="Driver Management" style="rounded=0;whiteSpace=wrap;html=1;fontSize=16;" parent="1" vertex="1">
          <mxGeometry x="-94" y="265" width="160" height="80" as="geometry" />
        </mxCell>
        <mxCell id="Vjv-evDcL62Ehfj9zXtV-2" value="Swift Ride" style="ellipse;whiteSpace=wrap;html=1;fontSize=16;" parent="1" vertex="1">
          <mxGeometry x="172" y="133" width="106" height="101" as="geometry" />
        </mxCell>
        <mxCell id="Vjv-evDcL62Ehfj9zXtV-4" value="Passenger&amp;nbsp; Information&lt;br&gt;Management" style="rounded=0;whiteSpace=wrap;html=1;fontSize=16;" parent="1" vertex="1">
          <mxGeometry x="356" y="35" width="160" height="75" as="geometry" />
        </mxCell>
        <mxCell id="Vjv-evDcL62Ehfj9zXtV-6" value="Car/Bus Booking Management" style="rounded=0;whiteSpace=wrap;html=1;fontSize=16;" parent="1" vertex="1">
          <mxGeometry x="356" y="265" width="162" height="78" as="geometry" />
        </mxCell>
        <mxCell id="Vjv-evDcL62Ehfj9zXtV-12" value="Bus Routes Management" style="rounded=0;whiteSpace=wrap;html=1;fontSize=16;" parent="1" vertex="1">
          <mxGeometry x="-94" y="31" width="160" height="74" as="geometry" />
        </mxCell>
        <mxCell id="Vjv-evDcL62Ehfj9zXtV-19" value="" style="edgeStyle=none;orthogonalLoop=1;jettySize=auto;html=1;endArrow=classic;startArrow=classic;endSize=8;startSize=8;rounded=0;fontSize=12;curved=1;entryX=0;entryY=1;entryDx=0;entryDy=0;exitX=0.943;exitY=0.257;exitDx=0;exitDy=0;exitPerimeter=0;" parent="1" source="Vjv-evDcL62Ehfj9zXtV-2" target="Vjv-evDcL62Ehfj9zXtV-4" edge="1">
          <mxGeometry width="140" relative="1" as="geometry">
            <mxPoint x="184" y="79" as="sourcePoint" />
            <mxPoint x="324" y="79" as="targetPoint" />
            <Array as="points" />
          </mxGeometry>
        </mxCell>
        <mxCell id="Vjv-evDcL62Ehfj9zXtV-20" value="" style="edgeStyle=none;orthogonalLoop=1;jettySize=auto;html=1;endArrow=classic;startArrow=classic;endSize=8;startSize=8;rounded=0;fontSize=12;curved=1;entryX=0;entryY=1;entryDx=0;entryDy=0;exitX=1;exitY=0;exitDx=0;exitDy=0;" parent="1" source="Vjv-evDcL62Ehfj9zXtV-1" target="Vjv-evDcL62Ehfj9zXtV-2" edge="1">
          <mxGeometry width="140" relative="1" as="geometry">
            <mxPoint x="15" y="253" as="sourcePoint" />
            <mxPoint x="155" y="253" as="targetPoint" />
            <Array as="points" />
          </mxGeometry>
        </mxCell>
        <mxCell id="Vjv-evDcL62Ehfj9zXtV-21" value="" style="edgeStyle=none;orthogonalLoop=1;jettySize=auto;html=1;endArrow=classic;startArrow=classic;endSize=8;startSize=8;rounded=0;fontSize=12;curved=1;exitX=1;exitY=1;exitDx=0;exitDy=0;entryX=0.066;entryY=0.248;entryDx=0;entryDy=0;entryPerimeter=0;" parent="1" source="Vjv-evDcL62Ehfj9zXtV-12" target="Vjv-evDcL62Ehfj9zXtV-2" edge="1">
          <mxGeometry width="140" relative="1" as="geometry">
            <mxPoint x="42" y="141" as="sourcePoint" />
            <mxPoint x="182" y="141" as="targetPoint" />
            <Array as="points" />
          </mxGeometry>
        </mxCell>
        <mxCell id="Vjv-evDcL62Ehfj9zXtV-22" value="" style="edgeStyle=none;orthogonalLoop=1;jettySize=auto;html=1;endArrow=classic;startArrow=classic;endSize=8;startSize=8;rounded=0;fontSize=12;curved=1;exitX=1;exitY=1;exitDx=0;exitDy=0;entryX=0;entryY=0;entryDx=0;entryDy=0;" parent="1" source="Vjv-evDcL62Ehfj9zXtV-2" target="Vjv-evDcL62Ehfj9zXtV-6" edge="1">
          <mxGeometry width="140" relative="1" as="geometry">
            <mxPoint x="278" y="257" as="sourcePoint" />
            <mxPoint x="418" y="257" as="targetPoint" />
            <Array as="points" />
          </mxGeometry>
        </mxCell>
      </root>
    </mxGraphModel>
  </diagram>
</mxfile>
